<?xml version="1.0" encoding="utf-8"?>
<!-- Generator: Adobe Illustrator 23.0.0, SVG Export Plug-In . SVG Version: 6.00 Build 0)  -->
<svg version="1.1" id="Calque_1" xmlns="http://www.w3.org/2000/svg" xmlns:xlink="http://www.w3.org/1999/xlink" x="0px" y="0px"
	 viewBox="0 0 2602.7 1545.4" style="enable-background:new 0 0 2602.7 1545.4;" xml:space="preserve">
<style type="text/css">
	.st0{fill:#FFFFFF;}
</style>
<path class="st0" d="M1253.9,693.9c5.7,1,10.4,2.7,13.8,5.2h-1.6c-3.6-1.7-7.9-2.9-12.8-3.5c-0.2,0-0.4,0-0.6,0.1
	c-1.3,0.7-2.7,0.9-4.2,1c-1.1,0.1-2.5,1.2-2.5,1.5c-0.8,7-2.7,10.4-7.4,12.1c-3.6,1-7.1,2.4-10.3,4.3c0,3.1-0.1,5.1-0.4,6.4
	c0,0.1-0.1,0.1-0.2,0c-0.4-1.3-0.4-3.1-0.2-5.2c-0.3,2.9-0.6,5.4-1.1,7.2c0,0.1-0.1,0.1-0.2,0c-0.6-0.9-0.4-3.2,0.5-6.8
	c-0.6,1.7-1.2,3.3-1.4,4.7c-0.2,1.5-0.5,2.8-0.9,3.2c-0.1,0.1-0.2,0.1-0.3,0c-0.4-0.5-0.5-1.5-0.1-2.9c0.4-1.6,1.1-3.3,1.8-5.1
	c-0.8,1.8-1.6,3.4-2.3,4.6c0,0.1-0.1,0.1-0.1,0c-0.2-0.3-0.2-0.8-0.1-1.2c0.4-1,1.2-2.5,1.8-3.4c-0.6,0.6-1.1,1.3-1.6,1.9
	c0,0-0.1,0-0.1,0c0-0.9,1.2-2.1,2-3.6c0.8-1.4,0.9-3.1,0.9-4.8c0.1-2.3,0.7-4.3,1.8-6c-0.5,0.5-0.9,0.9-1.4,1
	c-0.1,0-0.2-0.1-0.2-0.2c0.2-1.2,1.6-2.6,3.1-4.1c-1.8,1.8-3.7,3.3-5.5,4.4c-0.1,0-0.2,0-0.1-0.1c0.8-1.7,2.7-3.1,4.6-4.6
	c-0.9,0.9-2,1.5-3.1,2.2c-1.2,0.8-2.1,1.9-3.6,2.1c-0.1,0-0.2-0.1-0.1-0.2c0.9-1.6,3.4-3.2,5.8-4.5c-3.1,1.7-6.2,3.5-7.8,3.9
	c-0.1,0-0.3-0.1-0.2-0.2c0.3-1,3.1-2.5,6.4-4c-3,1.2-6.3,2.7-7.5,3c-0.5,0.1-0.9,0.2-1.2,0.1c-0.2,0-0.2-0.2-0.1-0.3
	c1-1.1,5.2-2.3,8.3-3.5c-3.2,0.9-6.2,1.9-8.2,2.4c-0.5,0.1-1.1,0.1-1.6,0c-0.1,0-0.2-0.2-0.1-0.3c1.2-1,4.9-1.9,9-2.8
	c-4.9,1-9.6,1.9-12.5,2.7c-0.1,0-0.2,0.1-0.3,0.1c-0.8,0.1-1.7,0.1-2.6,0.1c-0.2,0-0.2-0.2-0.1-0.3c0.4-0.3,1.2-0.7,2.3-0.9
	c4.6-0.9,11.2-2.5,11.2-2.6c0.1-0.1-13.1,2.3-16.2,3c-0.6,0.1-1.1,0.2-1.7,0.2c-0.6,0-1.2,0-1.6-0.1c-0.2,0-0.2-0.2,0-0.3
	c3-1.2,11.2-2.6,18.4-3.9c-7.3,0.8-14.2,1.9-20.2,3.5c-1.1,0.2-2.1,0.2-2.9-0.1c-0.1,0-0.2-0.2,0-0.3c2.7-1.5,13.2-2.7,21.4-4.1
	c-7.9,0.7-3.8-0.4-22.1,3.4c-0.9,0.2-1.9,0.2-3,0.1c-0.2,0-0.3-0.3-0.1-0.4c3.2-1.7,15-2.9,23.9-4.2c-2.6-0.7-14.5,1.8-24.6,3.6
	c-0.9,0.2-1.7,0.1-2.4-0.2c-0.2-0.1-0.2-0.3,0-0.4c5.8-2.4,14.6-3.5,24-4.2c-0.3-0.3-0.5-0.6,0-0.9c1.5-0.3,3.9-0.4,6.5-0.4
	c-3.6,0-6.8-0.3-9.3-0.9c-0.2,0-0.2-0.3,0-0.3c1.5-0.5,4.5-0.7,8.6-0.6c-4.9-0.2-9.1-0.6-11.2-1.5c-0.2-0.1-0.2-0.3,0-0.4
	c2.7-0.6,6-0.4,9.5,0c-4.6-0.5-8.6-1.2-11.4-2.3c-0.2-0.1-0.2-0.4,0-0.4c2.6-0.4,5.7-0.1,9.2,0.6c-4.5-0.7-8.3-1.8-11.1-3.6
	c-0.1-0.1-0.1-0.3,0.1-0.3c2.6,0.1,6.2,0.8,10.4,2.1c-5.4-1.8-9.2-3.5-11.1-4.9c-0.2-0.1-0.1-0.5,0.1-0.5c4.1-0.1,11.9,3.9,19.2,7.1
	c3.5,1.5,6.6,3.2,8.9,5.4c1,0.9,1.2,2.7,2.1,3.4c0.5,0.4,1.6,0.3,1.8,0.1c2.7-3.9,4.7-6.4,8-6.5
	C1248.7,688.1,1251.4,689.8,1253.9,693.9L1253.9,693.9z"/>
</svg>
