<?xml version="1.0" encoding="utf-8"?>
<!-- Generator: Adobe Illustrator 23.0.0, SVG Export Plug-In . SVG Version: 6.00 Build 0)  -->
<svg version="1.1" id="Calque_1" xmlns="http://www.w3.org/2000/svg" xmlns:xlink="http://www.w3.org/1999/xlink" x="0px" y="0px"
	 viewBox="0 0 2602.7 1545.4" style="enable-background:new 0 0 2602.7 1545.4;" xml:space="preserve">
<style type="text/css">
	.st0{fill:#FFFFFF;}
</style>
<path class="st0" d="M1468.8,611c41.8,7.5,76.8,19.7,102.1,38.2h-11.7c-26.3-12.9-58.2-21.2-94.2-26.1c-1.4-0.2-2.9,0.1-4.2,0.8
	c-9.6,5.3-19.8,6.9-30.8,7.4c-8.4,0.4-18.3,8.5-18.5,10.9c-5.7,51.4-20,76.6-54.9,89.2c-26.9,7.2-52.1,18.1-76,31.5
	c0.4,22.6-0.9,37.4-3,47.5c-0.1,0.6-1,0.7-1.2,0.1c-3.3-9.5-3.3-23.1-1.7-38.7c-1.9,21.5-4.6,39.6-8.2,53.5c-0.2,0.6-1,0.7-1.3,0.2
	c-4.2-6.8-2.8-23.9,3.5-50.4c-4.6,12.5-8.5,24.3-10.2,35c-1.8,11.2-3.4,20.4-6.4,23.5c-0.6,0.7-1.7,0.7-2.4,0
	c-2.9-3.3-3.4-10.8-0.7-21.3c3.1-12.1,8.3-24.4,13.3-37.4c-6.3,13.3-12.1,25-17.3,34c-0.2,0.4-0.8,0.4-1-0.1
	c-1.1-2.5-1.7-5.7-0.4-9.1c2.9-7.7,9-18.2,13.1-24.9c-4.2,4.8-8.2,9.5-12,14.2c-0.3,0.3-0.8,0.1-0.8-0.3c0.1-7,8.9-15.7,15.1-26.3
	c5.9-10,6.6-22.6,6.7-35.4c0.5-17,4.9-31.9,13.3-44.6c-3.4,3.9-6.9,6.5-10.4,7.4c-0.9,0.2-1.7-0.5-1.6-1.4
	c1.3-8.9,12-19.5,22.8-30.2c-13.5,13.5-27,24.5-40.6,32.4c-0.6,0.3-1.2-0.3-0.9-0.9c5.8-12.4,19.9-23.2,34.3-34
	c-7,6.4-15.1,11.1-23.1,16.5c-9,6-15.2,13.7-26.5,15.4c-0.8,0.1-1.3-0.7-0.8-1.4c6.7-12.1,25-23.7,42.6-33.5
	c-22.7,12.3-45.9,25.9-57.8,29.1c-1,0.3-1.9-0.6-1.6-1.6c2-7.7,22.7-18.2,47.2-29.4c-21.9,9.1-46.7,19.8-55.2,21.9
	c-3.5,1.1-6.3,1.2-8.9,0.9c-1.1-0.1-1.7-1.5-0.9-2.4c7.4-8.3,38.1-16.9,61-25.5c-23.6,6.8-46.1,13.8-60.6,17.6
	c-3.4,0.6-7.9,0.8-12.2,0.1c-1-0.2-1.4-1.5-0.6-2.2c8.7-7.5,36.3-14,66.3-20.4c-36.1,7-70.7,13.9-92,19.8c-0.8,0.2-1.5,0.4-2.3,0.5
	c-5.8,0.7-12.4,0.8-19.3,0.6c-1.1,0-1.5-1.5-0.5-2.1c3.3-1.9,9.1-4.9,16.9-6.5c33.8-7,82.7-18.5,83-19c0.5-0.8-96.8,17.2-119.3,22.3
	c-4.1,0.9-8.3,1.4-12.4,1.5c-4.6,0.1-8.8,0-12-0.6c-1.2-0.2-1.4-1.8-0.2-2.3c22.1-9.2,82.8-18.9,135.7-28.4
	c-53.8,6.2-104.5,14.2-149.2,25.8c-8.2,1.4-15.5,1.2-21.8-0.8c-1.1-0.3-1.2-1.8-0.2-2.3c19.9-10.8,97.7-20.1,158-29.9
	c-58.1,5-27.8-3.1-163.2,25.1c-6.5,1.4-14.1,1.4-22.1,0.7c-1.7-0.1-2.2-2.4-0.7-3.2c23.3-12.8,111-21.1,176.6-30.9
	c-19.3-5.1-107.3,13.1-181.5,26.4c-6.6,1.2-12.6,0.4-17.9-1.2c-1.3-0.4-1.4-2.2-0.1-2.7c42.9-17.8,108-25.9,177.2-30.8
	c-2.2-2-3.4-4.1,0.3-6.5c11.2-2,29-2.7,48.1-3.1c-26.4-0.3-50.4-1.9-68.9-6.5c-1.3-0.3-1.3-2.1-0.1-2.5c11.1-3.8,33.4-4.9,63.1-4.3
	c-36.3-1.4-66.9-4.3-82.5-10.9c-1.3-0.6-1.1-2.5,0.3-2.8c19.8-4.1,44.1-3.2,70.2-0.1c-34-3.8-63.6-8.9-84.2-16.8
	c-1.4-0.5-1.2-2.6,0.3-2.9c18.9-2.6,42.4-0.5,68.2,4.2c-33.1-4.8-61.1-13-81.7-26.3c-0.9-0.6-0.5-1.9,0.6-1.9
	c19.4,0.5,45.8,6.2,77,15.5c-40-13.6-68-25.7-82-36.2c-1.5-1.1-0.7-3.4,1.1-3.5c30.5-0.8,87.5,29.1,141.9,52.4
	c26.2,11.2,48.6,23.9,66.1,39.8c7.7,7,9.1,20,15.7,24.7c3.8,2.7,11.6,2.5,13.1,0.4c19.9-28.5,34.7-47.5,59.2-47.8
	C1430.6,567.9,1450.3,580.7,1468.8,611L1468.8,611z"/>
</svg>
